<svg height="55.48" viewBox="296.27 0 54.67 55.48" width="54.67" xmlns="http://www.w3.org/2000/svg" xmlns:xlink="http://www.w3.org/1999/xlink"><clipPath id="a" transform="translate(-2.65 -1.33)"><path d="m2.65 1.33h350.94v55.48h-350.94z"/></clipPath><g clip-path="url(#a)"><path d="m303 1.33h46.56a4.13 4.13 0 0 1 4.08 4.18v47.17a4.11 4.11 0 0 1 -4.08 4.13h-46.56a4.11 4.11 0 0 1 -4.08-4.13v-47.17a4.13 4.13 0 0 1 4.08-4.18" fill="#f2ba4f" transform="translate(-2.65 -1.33)"/></g><g clip-path="url(#a)"><path d="m320.49 45.41h11.51l-5-19.09h-1.64zm13.13 2.59h-14.78a1.28 1.28 0 0 1 -1-.5 1.32 1.32 0 0 1 -.23-1.12l5.53-21.68a1.28 1.28 0 0 1 1.24-1h3.62a1.29 1.29 0 0 1 1.24 1l5.64 21.68a1.32 1.32 0 0 1 -.22 1.12 1.26 1.26 0 0 1 -1 .51" fill="#fff" transform="translate(-2.65 -1.33)"/></g><g clip-path="url(#a)"><path d="m326.23 12.64a2.68 2.68 0 1 0 2.65 2.68 2.67 2.67 0 0 0 -2.65-2.68m0 8a5.27 5.27 0 1 1 5.2-5.27 5.24 5.24 0 0 1 -5.2 5.27" fill="#fff" transform="translate(-2.65 -1.33)"/></g></svg>