<svg height="55.48" viewBox="0 0 350.94 55.48" width="350.94" xmlns="http://www.w3.org/2000/svg" xmlns:xlink="http://www.w3.org/1999/xlink"><clipPath id="a" transform="translate(-2.65 -1.33)"><path d="m2.65 1.33h350.94v55.48h-350.94z"/></clipPath><g clip-path="url(#a)"><path d="m303 1.33h46.56a4.13 4.13 0 0 1 4.08 4.18v47.17a4.11 4.11 0 0 1 -4.08 4.13h-46.56a4.11 4.11 0 0 1 -4.08-4.13v-47.17a4.13 4.13 0 0 1 4.08-4.18" fill="#f2ba4f" transform="translate(-2.65 -1.33)"/></g><g clip-path="url(#a)"><path d="m320.49 45.41h11.51l-5-19.09h-1.64zm13.13 2.59h-14.78a1.28 1.28 0 0 1 -1-.5 1.32 1.32 0 0 1 -.23-1.12l5.53-21.68a1.28 1.28 0 0 1 1.24-1h3.62a1.29 1.29 0 0 1 1.24 1l5.64 21.68a1.32 1.32 0 0 1 -.22 1.12 1.26 1.26 0 0 1 -1 .51" fill="#fff" transform="translate(-2.65 -1.33)"/></g><g clip-path="url(#a)"><path d="m326.23 12.64a2.68 2.68 0 1 0 2.65 2.68 2.67 2.67 0 0 0 -2.65-2.68m0 8a5.27 5.27 0 1 1 5.2-5.27 5.24 5.24 0 0 1 -5.2 5.27" fill="#fff" transform="translate(-2.65 -1.33)"/></g><g clip-path="url(#a)"><path d="m2.83 47.81a.61.61 0 0 1 -.18-.45v-35.58a.64.64 0 0 1 .18-.45.61.61 0 0 1 .45-.18h6.16a.64.64 0 0 1 .45.18.62.62 0 0 1 .19.45v35.59a.58.58 0 0 1 -.19.45.61.61 0 0 1 -.45.18h-6.16a.6.6 0 0 1 -.45-.19" fill="#fbbd48" transform="translate(-2.65 -1.33)"/></g><g clip-path="url(#a)"><path d="m39.94 11.33a.61.61 0 0 1 .45-.18h6.16a.63.63 0 0 1 .45.18.61.61 0 0 1 .18.45v35.59a.63.63 0 0 1 -.18.45.61.61 0 0 1 -.45.18h-5.95a.76.76 0 0 1 -.74-.42l-13.63-22.53c-.07-.11-.14-.15-.21-.13s-.1.1-.1.24l.08 22.22a.63.63 0 0 1 -.18.45.61.61 0 0 1 -.45.18h-6.14a.62.62 0 0 1 -.63-.63v-35.6a.63.63 0 0 1 .18-.45.61.61 0 0 1 .45-.18h5.95a.76.76 0 0 1 .74.42l13.58 22.43c.07.1.14.15.21.13s.11-.1.11-.24v-22.11a.58.58 0 0 1 .17-.45" fill="#fbbd48" transform="translate(-2.65 -1.33)"/></g><g clip-path="url(#a)"><path d="m81.58 11.33a.61.61 0 0 1 .18.45v5.16a.62.62 0 0 1 -.63.63h-9.42a.23.23 0 0 0 -.26.26v29.54a.63.63 0 0 1 -.18.45.61.61 0 0 1 -.45.18h-6.16a.62.62 0 0 1 -.63-.63v-29.54a.23.23 0 0 0 -.26-.26h-9.16a.62.62 0 0 1 -.63-.63v-5.16a.63.63 0 0 1 .18-.45.61.61 0 0 1 .45-.18h26.53a.6.6 0 0 1 .44.18" fill="#fbbd48" transform="translate(-2.65 -1.33)"/></g><g clip-path="url(#a)"><path d="m96 17.78v9a.23.23 0 0 0 .26.26h6.9a5 5 0 0 0 3.61-1.32 4.49 4.49 0 0 0 1.39-3.42 4.59 4.59 0 0 0 -1.39-3.45 5 5 0 0 0 -3.61-1.34h-6.9a.24.24 0 0 0 -.26.27m12.06 29.74-6.58-14.58a.34.34 0 0 0 -.32-.21h-4.9a.23.23 0 0 0 -.26.27v14.37a.63.63 0 0 1 -.18.45.57.57 0 0 1 -.45.18h-6.13a.61.61 0 0 1 -.45-.18.62.62 0 0 1 -.19-.45v-35.59a.6.6 0 0 1 .19-.45.61.61 0 0 1 .45-.18h15.06a12.35 12.35 0 0 1 5.92 1.37 9.61 9.61 0 0 1 4 3.89 11.9 11.9 0 0 1 1.4 5.84 10.41 10.41 0 0 1 -1.79 6.13 9.58 9.58 0 0 1 -5 3.61.25.25 0 0 0 -.16.37l7.16 14.9a.85.85 0 0 1 .11.32c0 .28-.19.42-.58.42h-6.47a.75.75 0 0 1 -.75-.48" fill="#fbbd48" transform="translate(-2.65 -1.33)"/></g><g clip-path="url(#a)"><path d="m123.22 47.81a.61.61 0 0 1 -.18-.45v-35.58a.64.64 0 0 1 .18-.45.57.57 0 0 1 .45-.18h6.16a.63.63 0 0 1 .45.18.61.61 0 0 1 .18.45v35.59a.62.62 0 0 1 -.63.63h-6.16a.61.61 0 0 1 -.45-.19" fill="#fbbd48" transform="translate(-2.65 -1.33)"/></g><g clip-path="url(#a)"><path d="m160.34 11.33a.61.61 0 0 1 .45-.18h6.21a.63.63 0 0 1 .45.18.62.62 0 0 1 .19.45v35.59a.6.6 0 0 1 -.19.45.61.61 0 0 1 -.45.18h-6a.76.76 0 0 1 -.74-.42l-13.64-22.53c-.07-.11-.14-.15-.21-.13s-.1.1-.1.24l.1 22.22a.63.63 0 0 1 -.18.45.61.61 0 0 1 -.45.18h-6.16a.62.62 0 0 1 -.63-.63v-35.6a.63.63 0 0 1 .18-.45.61.61 0 0 1 .45-.18h5.95a.76.76 0 0 1 .74.42l13.58 22.43c.07.1.14.15.21.13s.11-.1.11-.24l-.05-22.11a.55.55 0 0 1 .18-.45" fill="#fbbd48" transform="translate(-2.65 -1.33)"/></g><g clip-path="url(#a)"><path d="m181.37 47.08a10.92 10.92 0 0 1 -4.87-3.84 10.07 10.07 0 0 1 -1.71-5.82v-1.16a.62.62 0 0 1 .63-.63h6a.62.62 0 0 1 .63.63v.79a4.29 4.29 0 0 0 1.95 3.55 8.59 8.59 0 0 0 5.26 1.45 6.28 6.28 0 0 0 4.16-1.18 3.72 3.72 0 0 0 1.37-2.87 3 3 0 0 0 -.84-2.13 7.49 7.49 0 0 0 -2.29-1.53c-1-.44-2.5-1-4.61-1.82a46.5 46.5 0 0 1 -6-2.47 12 12 0 0 1 -4.05-3.5 8.72 8.72 0 0 1 -1.66-5.4 9.51 9.51 0 0 1 1.63-5.53 10.39 10.39 0 0 1 4.49-3.62 16.63 16.63 0 0 1 6.69-1.26 17 17 0 0 1 7.13 1.42 11.68 11.68 0 0 1 4.9 4 10.13 10.13 0 0 1 1.76 5.84v.79a.62.62 0 0 1 -.63.63h-6.05a.63.63 0 0 1 -.45-.18.61.61 0 0 1 -.18-.45v-.42a4.78 4.78 0 0 0 -1.82-3.76 7.44 7.44 0 0 0 -5-1.55 6.31 6.31 0 0 0 -3.87 1 3.43 3.43 0 0 0 -1.39 2.9 3.13 3.13 0 0 0 .82 2.21 7.17 7.17 0 0 0 2.42 1.61q1.6.7 5 1.92a61.93 61.93 0 0 1 5.87 2.42 11.74 11.74 0 0 1 3.84 3.13 8.24 8.24 0 0 1 1.71 5.4 9.44 9.44 0 0 1 -3.63 7.82q-3.63 2.86-9.84 2.87a19 19 0 0 1 -7.36-1.35" fill="#fbbd48" transform="translate(-2.65 -1.33)"/></g><g clip-path="url(#a)"><path d="m209.71 47.81a.61.61 0 0 1 -.18-.45v-35.58a.64.64 0 0 1 .18-.45.61.61 0 0 1 .45-.18h6.16a.63.63 0 0 1 .45.18.61.61 0 0 1 .18.45v35.59a.62.62 0 0 1 -.63.63h-6.16a.6.6 0 0 1 -.45-.19" fill="#fbbd48" transform="translate(-2.65 -1.33)"/></g><g clip-path="url(#a)"><path d="m250.83 17.33a.61.61 0 0 1 -.45.18h-17.21a.23.23 0 0 0 -.26.26v8.16a.23.23 0 0 0 .26.26h11.32a.64.64 0 0 1 .45.18.61.61 0 0 1 .18.45v5.11a.62.62 0 0 1 -.63.63h-11.32a.23.23 0 0 0 -.26.26v14.55a.62.62 0 0 1 -.63.63h-6.16a.62.62 0 0 1 -.63-.63v-35.59a.63.63 0 0 1 .18-.45.61.61 0 0 1 .45-.18h24.27a.62.62 0 0 1 .63.63v5.11a.66.66 0 0 1 -.19.44" fill="#fbbd48" transform="translate(-2.65 -1.33)"/></g><g clip-path="url(#a)"><path d="m266.57 47.76a.62.62 0 0 1 -.19-.45v-13.31a.89.89 0 0 0 -.05-.32l-10.84-21.8a.75.75 0 0 1 -.1-.32c0-.28.19-.42.58-.42h6.63a.75.75 0 0 1 .74.47l6.58 14c.11.21.21.21.32 0l6.58-14a.74.74 0 0 1 .74-.47h6.74a.6.6 0 0 1 .5.18.55.55 0 0 1 0 .55l-10.98 21.79a.69.69 0 0 0 -.05.32v13.32a.63.63 0 0 1 -.18.45.61.61 0 0 1 -.45.18h-6.14a.58.58 0 0 1 -.46-.17" fill="#f2ba4f" transform="translate(-2.65 -1.33)"/></g></svg>